<svg xmlns="http://www.w3.org/2000/svg" width="32" height="32" viewBox="0 0 32 32" fill="none">
  <path d="M25.3333 26.6667V12H6.66667V26.6667H25.3333ZM21.3333 2.66669H24V5.33335H25.3333C26.0406 5.33335 26.7189 5.61431 27.219 6.1144C27.719 6.6145 28 7.29278 28 8.00002V26.6667C28 27.3739 27.719 28.0522 27.219 28.5523C26.7189 29.0524 26.0406 29.3334 25.3333 29.3334H6.66667C5.95942 29.3334 5.28115 29.0524 4.78105 28.5523C4.28095 28.0522 4 27.3739 4 26.6667V8.00002C4 7.29278 4.28095 6.6145 4.78105 6.1144C5.28115 5.61431 5.95942 5.33335 6.66667 5.33335H8V2.66669H10.6667V5.33335H21.3333V2.66669ZM9.33333 24V14.6667H12V24H9.33333ZM20 14.6667H22.6667V24H20V14.6667Z" fill="#EAEAEA"/>
</svg>

