<svg xmlns="http://www.w3.org/2000/svg" width="32" height="32" viewBox="0 0 32 32" fill="none">
  <path d="M26.6666 18V4.00002C26.6666 3.26364 26.0697 2.66669 25.3333 2.66669H6.66659C5.93021 2.66669 5.33325 3.26364 5.33325 4.00002V28C5.33325 28.7364 5.93021 29.3334 6.66659 29.3334H13.9999" stroke="#EAEAEA" stroke-width="3" stroke-linecap="round" stroke-linejoin="round"/>
  <path d="M11.3333 8H20.6666" stroke="#EAEAEA" stroke-width="3" stroke-linecap="round" stroke-linejoin="round"/>
  <path d="M11.3333 13.3333H20.6666" stroke="#EAEAEA" stroke-width="3" stroke-linecap="round" stroke-linejoin="round"/>
  <path d="M11.3333 18.6667H15.3333" stroke="#EAEAEA" stroke-width="3" stroke-linecap="round" stroke-linejoin="round"/>
  <path d="M26 29.3333L23.6903 27.0236L26 29.3333ZM23.6903 27.0236C24.2936 26.4204 24.6667 25.5871 24.6667 24.6666C24.6667 22.8257 23.1743 21.3333 21.3333 21.3333C19.4924 21.3333 18 22.8257 18 24.6666C18 26.5076 19.4924 28 21.3333 28C22.2538 28 23.0871 27.6269 23.6903 27.0236Z" stroke="#EAEAEA" stroke-width="3" stroke-linecap="round" stroke-linejoin="round"/>
</svg>

