<svg width="32" height="32" viewBox="0 0 32 32" fill="none" xmlns="http://www.w3.org/2000/svg">
<path d="M26.7505 13.9961H18.0005C17.2048 13.9961 16.4418 13.68 15.8792 13.1174C15.3166 12.5548 15.0005 11.7917 15.0005 10.9961V2.24609C15.0005 2.17979 14.9741 2.1162 14.9273 2.06932C14.8804 2.02243 14.8168 1.99609 14.7505 1.99609H9.00049C7.93962 1.99609 6.92221 2.41752 6.17206 3.16767C5.42192 3.91781 5.00049 4.93523 5.00049 5.99609V25.9961C5.00049 27.057 5.42192 28.0744 6.17206 28.8245C6.92221 29.5747 7.93962 29.9961 9.00049 29.9961H23.0005C24.0614 29.9961 25.0788 29.5747 25.8289 28.8245C26.5791 28.0744 27.0005 27.057 27.0005 25.9961V14.2461C27.0005 14.1798 26.9741 14.1162 26.9273 14.0693C26.8804 14.0224 26.8168 13.9961 26.7505 13.9961Z" fill="#999999"/>
<path d="M26.2037 11.7828L17.2156 2.79465C17.1981 2.77727 17.1759 2.76545 17.1517 2.76067C17.1275 2.75589 17.1025 2.75837 17.0797 2.76779C17.0569 2.7772 17.0374 2.79314 17.0237 2.8136C17.0099 2.83406 17.0025 2.85813 17.0024 2.88278V10.9959C17.0024 11.2611 17.1078 11.5155 17.2953 11.703C17.4829 11.8905 17.7372 11.9959 18.0024 11.9959H26.1156C26.1402 11.9958 26.1643 11.9884 26.1847 11.9747C26.2052 11.9609 26.2211 11.9414 26.2306 11.9187C26.24 11.8959 26.2424 11.8708 26.2377 11.8467C26.2329 11.8225 26.2211 11.8003 26.2037 11.7828Z" fill="#999999"/>
</svg>
