<svg width="32" height="32" viewBox="0 0 32 32" fill="none" xmlns="http://www.w3.org/2000/svg">
<path d="M5.33341 29.3333H26.6667C27.374 29.3333 28.0523 29.0523 28.5524 28.5522C29.0525 28.0521 29.3334 27.3739 29.3334 26.6666V5.33329C29.3334 4.62605 29.0525 3.94777 28.5524 3.44767C28.0523 2.94758 27.374 2.66663 26.6667 2.66663H10.6667C9.9595 2.66663 9.28123 2.94758 8.78113 3.44767C8.28103 3.94777 8.00008 4.62605 8.00008 5.33329V26.6666C8.00008 27.3739 7.71913 28.0521 7.21903 28.5522C6.71894 29.0523 6.04066 29.3333 5.33341 29.3333ZM5.33341 29.3333C4.62617 29.3333 3.94789 29.0523 3.4478 28.5522C2.9477 28.0521 2.66675 27.3739 2.66675 26.6666V14.6666C2.66675 13.2 3.86675 12 5.33341 12H8.00008M24.0001 18.6666H13.3334M20.0001 24H13.3334M13.3334 7.99996H24.0001V13.3333H13.3334V7.99996Z" stroke="#999999" stroke-width="3" stroke-linecap="round" stroke-linejoin="round"/>
</svg>
